<svg width="77" height="36" viewBox="0 0 77 36" fill="none" xmlns="http://www.w3.org/2000/svg">
<path d="M62.8781 13.9161C60.4449 11.4523 58.5877 9.54824 56.795 7.7566C56.1545 7.08445 55.5149 6.52528 54.9369 5.73961C54.103 4.73027 52.9508 3.61075 53.5663 1.45889C54.1829 -0.580015 55.3965 0.312997 56.2899 0.869937C57.2457 1.31335 58.2055 2.20863 59.1008 2.99149C63.2563 6.45676 67.4128 10.035 71.5059 13.6138C72.5936 14.6209 73.7438 15.5145 74.7076 16.8616C76.7621 19.5547 76.6592 22.2668 74.4563 24.3198C71.4979 27.0572 68.4741 29.5693 65.4503 32.0814C64.1912 33.2222 62.8687 34.3636 61.5432 35.1661C60.7857 35.6247 59.8964 35.5196 59.0725 35.6399C58.7907 32.4792 59.7999 31.7925 60.6813 30.9939C62.8832 28.828 65.1495 26.7745 67.3514 24.6086C68.1059 23.8111 68.9238 23.0131 69.6692 21.199C68.5251 20.9832 67.4433 20.6538 66.3002 20.551C57.7269 19.8361 49.2171 19.1206 40.6438 18.4057C28.1968 17.3861 15.8133 16.366 3.3653 15.2335C2.34904 15.1296 1.32778 14.4608 0.117153 13.9066C1.23233 10.8466 2.57086 11.5126 3.65059 11.616C9.74417 11.788 15.9032 12.1854 21.9978 12.4704C35.1397 13.1448 48.2817 13.8193 61.4237 14.4938C61.74 14.378 61.9293 14.2634 62.8781 13.9161Z" fill="white"/>
</svg>
